{"title":"Lucia Tovar","uid":6209106,"size":496382643,"categoryP":"porn","categoryS":"hd___movies","magnet":"?xt=urn:btih:69cc5f323199005646d6bad7fe3b19921748ded5&amp;dn=Lucia+Tovar&amp;tr=udp%3A%2F%2Ftracker.openbittorrent.com%3A80&amp;tr=udp%3A%2F%2Fopen.demonii.com%3A1337&amp;tr=udp%3A%2F%2Ftracker.coppersurfer.tk%3A6969&amp;tr=udp%3A%2F%2Fexodus.desync.com%3A6969","seeders":0,"leechers":1,"uploader":"harkett","files":2,"time":1298917026,"description":"A high definition movie clip from the hot colombian Lucia Tovar.\n\nThe video apear on foxes.com website\n\nFormat                           : Windows Media ( wmv )\n\nFile size                        : 473 MB\n\nDuration                         : 16 min 6s\n\nOverall bit rate                 : 4 106 Kbps\n\nMaximum Overall bit rate         : 4 097 Kbps\n\nCodec ID                         : WMV3\nCodec ID/Info                    : Windows Media Video 9\nCodec ID/Hint                    : WMV3\nDescription of the codec         : Windows Media Video V9 - 1280 x 720, 29.96 fps, 4000 kbps (CBR)\n\nWidth                            : 1 280 pixels\nHeight                           : 720 pixels\nDisplay aspect ratio             : 16:9\nFrame rate                       : 29.970 fps\n\nCompression mode                 : Lossy\nBits/(Pixel*Frame)               : 0.145\nStream size                      : 461 MiB (97%)\nLanguage                         : English (US)\n\nAudio\nID                               : 1\nFormat                           : WMA\nFormat version                   : Version 2\nCodec ID                         : 161\nCodec ID/Info                    : Windows Media Audio\nDescription of the codec         : Windows Media Audio V9 Standard - 96 kbps, 44 kHz, 16 bit, Stereo (CBR)\nDuration                         : 16mn 6s\nBit rate mode                    : Constant\nBit rate                         : 96.0 Kbps\nChannel(s)                       : 2 channels\nSampling rate                    : 44.1 KHz\nBit depth                        : 16 bits\nStream size                      : 11.1 MiB (2%)\nLanguage                         : English (US)\n\nThere are about 30 more videos . It's a bit like test to see if anyone is interested.\n\nSo please write few comment.\n\nEnjoy !\n","torrent":{"xt":"urn:btih:69cc5f323199005646d6bad7fe3b19921748ded5","amp;dn":"Lucia+Tovar","amp;tr":["udp%3A%2F%2Ftracker.openbittorrent.com%3A80","udp%3A%2F%2Fopen.demonii.com%3A1337","udp%3A%2F%2Ftracker.coppersurfer.tk%3A6969","udp%3A%2F%2Fexodus.desync.com%3A6969"],"infoHash":"69cc5f323199005646d6bad7fe3b19921748ded5","infoHashBuffer":{"type":"Buffer","data":[105,204,95,50,49,153,0,86,70,214,186,215,254,59,25,146,23,72,222,213]},"announce":[],"urlList":[]}}